<?xml version="1.0" encoding="UTF-8"?>
<!DOCTYPE svg PUBLIC "-//W3C//DTD SVG 1.1//EN" "http://www.w3.org/Graphics/SVG/1.1/DTD/svg11.dtd">
<!-- Creator: CorelDRAW X5 -->
<svg xmlns="http://www.w3.org/2000/svg" xml:space="preserve" width="190.4mm" height="130mm" style="shape-rendering:geometricPrecision; text-rendering:geometricPrecision; image-rendering:optimizeQuality; fill-rule:evenodd; clip-rule:evenodd"
viewBox="0 0 19040 13000"
 xmlns:xlink="http://www.w3.org/1999/xlink"
 enable-background="new 0 0 1000 682.7737427">
 <defs>
  <style type="text/css">
   <![CDATA[
    .fil0 {fill:#753C94}
    .fil1 {fill:white}
   ]]>
  </style>
 </defs>
 <g id="Layer_x0020_1">
  <metadata id="CorelCorpID_0Corel-Layer"/>
  <path class="fil0" d="M7745 9037c1391,159 2819,-231 3572,-311 213,-23 372,-7 462,62 137,105 133,236 20,471 -116,240 36,348 302,257 682,-235 2064,-1468 1863,-3245 -204,-1803 -1889,-2976 -4439,-2801 -2592,178 -4274,1507 -4458,3022 -114,942 563,2305 2677,2546l0 0z"/>
  <path class="fil1" d="M7635 6631l-289 -490 -289 490 578 0 0 0zm667 462c46,79 20,180 -59,226 -1,1 -3,1 -4,2 -26,15 -55,22 -85,22 -61,0 -118,-32 -149,-84l-173 -294 -972 0 -173 294c-47,80 -152,108 -234,62 -80,-43 -110,-144 -66,-224 1,-2 2,-3 3,-5l220 -374 1 -1 587 -996c31,-52 87,-84 149,-84 62,0 118,32 149,84l586 995 2 3c0,0 220,374 220,374zm1249 -608l583 -570c65,-63 67,-167 4,-233 -1,-1 -3,-3 -4,-4 -67,-66 -175,-66 -242,0l-584 570 -583 -570c-68,-66 -175,-66 -243,0 -65,63 -67,168 -3,233 1,1 2,2 3,3l584 570 -584 570c-65,64 -67,168 -3,233 1,1 2,2 3,3 34,33 78,49 121,49 44,0 88,-16 121,-49l584 -570 584 570c34,33 77,49 121,49 45,0 89,-17 121,-49 65,-63 67,-167 4,-232 -1,-1 -3,-3 -4,-4 0,0 -583,-570 -583,-570zm961 -856c-95,0 -171,75 -171,167l0 1379c0,93 77,167 171,167 95,0 171,-75 171,-167l0 -1379c0,-92 -76,-167 -171,-167zm2190 1202c0,283 -235,512 -524,512l-1105 0c-95,0 -172,-75 -172,-167 0,-93 76,-168 172,-168l1105 0c100,0 182,-79 182,-177 0,-98 -82,-177 -182,-177l-799 0c-289,0 -525,-230 -525,-512 0,-282 235,-512 525,-512l1101 0c95,0 172,75 172,167 0,93 -77,167 -172,167l-1101 0c-100,0 -182,79 -182,177 0,98 81,177 182,177l799 0c289,0 524,229 524,512z"/>
 </g>
</svg>
