<?xml version="1.0" encoding="UTF-8"?>
<!DOCTYPE svg PUBLIC "-//W3C//DTD SVG 1.1//EN" "http://www.w3.org/Graphics/SVG/1.1/DTD/svg11.dtd">
<!-- Creator: CorelDRAW X5 -->
<svg xmlns="http://www.w3.org/2000/svg" xml:space="preserve" width="210mm" height="112.364mm" style="shape-rendering:geometricPrecision; text-rendering:geometricPrecision; image-rendering:optimizeQuality; fill-rule:evenodd; clip-rule:evenodd"
viewBox="0 0 21000 11236"
 xmlns:xlink="http://www.w3.org/1999/xlink">
 <defs>
  <style type="text/css">
   <![CDATA[
    .fil2 {fill:#1D1819}
    .fil1 {fill:#E62129}
    .fil3 {fill:#FEFEFE}
    .fil0 {fill:#FFF000}
   ]]>
  </style>
 </defs>
 <g id="Layer_x0020_1">
  <metadata id="CorelCorpID_0Corel-Layer"/>
  <path class="fil0" d="M5652 7857c469,0 781,-432 852,-858 -99,895 333,1107 767,1133 385,23 752,-196 835,-567l0 461c89,501 490,640 792,640 290,0 687,-144 788,-639l0 -554c209,951 1513,761 1619,10l-1 -313c181,811 1382,904 1604,25l-1 246c19,855 1546,965 1586,-73l1 -237c171,1063 1704,808 1702,-21l0 -3617c-108,-362 -446,-626 -846,-626 -412,0 -758,280 -855,659l0 535c-99,-338 -411,-584 -781,-584 -396,0 -732,298 -834,676l0 0 0 -353c-75,-367 -400,-643 -790,-643 -383,0 -704,267 -786,625l0 376c-65,-384 -400,-676 -802,-676 -394,0 -723,280 -798,652l-1 -389c-72,-375 -403,-658 -799,-658 -360,0 -665,233 -773,557l0 -259c0,-448 -364,-813 -814,-813 -442,0 -820,367 -814,814l0 962c-71,-426 -383,-858 -852,-858 -409,0 -752,350 -848,822l0 2668c46,487 440,879 848,879z"/>
  <path class="fil1" d="M15304 5507c493,0 892,400 892,892 0,493 -400,892 -892,892 -351,0 -655,-203 -801,-498 -146,295 -449,498 -801,498 -351,0 -655,-203 -801,-498 -146,295 -449,498 -801,498 -351,0 -655,-203 -801,-498 -146,295 -449,498 -801,498 -351,0 -655,-203 -801,-498 -146,295 -449,498 -801,498 -351,0 -655,-203 -801,-498 -146,295 -449,498 -801,498 -351,0 -655,-203 -801,-498 -146,295 -449,498 -801,498 -493,0 -892,-400 -892,-892 0,-493 400,-892 892,-892 351,0 655,203 801,498 146,-295 449,-498 801,-498 351,0 655,203 801,498 146,-295 449,-498 801,-498 351,0 655,203 801,498 146,-295 449,-498 801,-498 351,0 655,203 801,498 146,-295 449,-498 801,-498 351,0 655,203 801,498 146,-295 449,-498 801,-498 351,0 655,203 801,498 146,-295 449,-498 801,-498z"/>
  <path class="fil2" d="M10428 4313c246,0 446,200 446,446 0,246 -200,446 -446,446 -246,0 -446,-200 -446,-446 0,-246 200,-446 446,-446zm-4895 889l28 2 164 0 29 -2 0 -930 -36 -1 -150 0 -35 2 0 928zm9585 -893l-118 0 0 197 116 0c17,151 -20,361 15,503 45,171 179,202 338,194l0 -197c-99,3 -139,-52 -139,-132l1 -367 129 1 -4 -198 -126 -2 0 -379 -211 3 0 378zm-3359 575l-116 148c27,44 147,106 196,126 526,207 733,-328 363,-484 -78,-33 -175,-47 -247,-81 -122,-56 -23,-212 202,-108 50,23 59,33 103,62l96 -164c-139,-87 -313,-175 -493,-102 -180,73 -220,303 -101,420 117,114 407,112 429,219 25,125 -245,121 -432,-36zm-4277 -188l9 506 217 1 -1 -483c-7,-185 -96,-291 -209,-366 -133,-89 -308,-110 -463,-35 -118,57 -232,184 -265,336l-2 550 212 0 3 -351c0,-130 -8,-207 72,-285 173,-169 415,-32 426,129zm6403 419l0 89 190 0 1 -443c-1,-161 -40,-238 -118,-333 -213,-262 -728,-180 -798,232 -40,240 118,476 361,526 194,40 284,-15 363,-72zm-270 -630c139,0 252,113 252,252 0,139 -113,252 -252,252 -139,0 -252,-113 -252,-252 0,-139 113,-252 252,-252zm-4529 -131c-54,-37 -90,-51 -176,-66 -205,-34 -389,63 -488,245 -119,218 -24,541 252,642 292,107 553,-90 607,-325 25,-109 13,-813 13,-979l-207 0 0 483zm-253 135c139,0 252,113 252,252 0,139 -113,252 -252,252 -139,0 -252,-113 -252,-252 0,-139 113,-252 252,-252zm1594 18c139,0 252,113 252,252 0,139 -113,252 -252,252 -139,0 -252,-113 -252,-252 0,-139 113,-252 252,-252z"/>
  <path class="fil3" d="M5706 5924c263,0 475,213 475,475 0,263 -213,475 -475,475 -263,0 -475,-213 -475,-475 0,-263 213,-475 475,-475zm9588 0c263,0 475,213 475,475 0,263 -213,475 -475,475 -263,0 -475,-213 -475,-475 0,-263 213,-475 475,-475zm0 206c149,0 269,120 269,269 0,149 -120,269 -269,269 -149,0 -269,-120 -269,-269 0,-149 120,-269 269,-269zm-1598 -206c263,0 475,213 475,475 0,263 -213,475 -475,475 -263,0 -475,-213 -475,-475 0,-263 213,-475 475,-475zm0 206c149,0 269,120 269,269 0,149 -120,269 -269,269 -149,0 -269,-120 -269,-269 0,-149 120,-269 269,-269zm-1336 -588c76,24 148,57 214,99 2,273 7,775 -14,867 -55,243 -325,445 -625,335 -284,-105 -383,-437 -259,-662 102,-187 292,-287 503,-252 89,15 125,32 181,68l0 -455zm-260 595c144,0 260,116 260,260 0,144 -116,260 -260,260 -144,0 -260,-116 -260,-260 0,-144 116,-260 260,-260zm-1822 119c54,-188 401,-189 452,0l-452 0zm694 243l-214 1c-57,117 -159,190 -294,170 -136,-28 -208,-117 -229,-254l750 -1c16,-260 -196,-463 -426,-488 -269,-29 -487,174 -518,406 -37,276 158,495 389,534 191,32 375,-57 475,-203 25,-36 65,-115 67,-166zm-1810 -139l0 23 228 0c-7,-187 -97,-293 -211,-370 -134,-90 -312,-111 -469,-36 -120,57 -235,187 -268,341l-2 557 215 0 3 -356c0,-131 -8,-210 73,-289 176,-171 420,-33 431,130zm-1858 -436c263,0 475,213 475,475 0,263 -213,475 -475,475 -263,0 -475,-213 -475,-475 0,-263 213,-475 475,-475zm0 206c149,0 269,120 269,269 0,149 -120,269 -269,269 -149,0 -269,-120 -269,-269 0,-149 120,-269 269,-269zm-1598 0c149,0 269,120 269,269 0,149 -120,269 -269,269 -149,0 -269,-120 -269,-269 0,-149 120,-269 269,-269z"/>
 </g>
</svg>
