<?xml version="1.0" encoding="UTF-8"?>
<!DOCTYPE svg PUBLIC "-//W3C//DTD SVG 1.1//EN" "http://www.w3.org/Graphics/SVG/1.1/DTD/svg11.dtd">
<!-- Creator: CorelDRAW X5 -->
<svg xmlns="http://www.w3.org/2000/svg" xml:space="preserve" width="210mm" height="35.267mm" style="shape-rendering:geometricPrecision; text-rendering:geometricPrecision; image-rendering:optimizeQuality; fill-rule:evenodd; clip-rule:evenodd"
viewBox="0 0 21000 3527"
 xmlns:xlink="http://www.w3.org/1999/xlink">
 <defs>
  <style type="text/css">
   <![CDATA[
    .fil1 {fill:#ED1D61}
    .fil0 {fill:#050708;fill-rule:nonzero}
   ]]>
  </style>
 </defs>
 <g id="Layer_x0020_1">
  <metadata id="CorelCorpID_0Corel-Layer"/>
  <path class="fil0" d="M4613 4776c-654,-68 -1080,-294 -1263,-671 -70,-145 -128,-423 -129,-619 -2,-572 280,-968 829,-1165 312,-112 602,-147 1230,-147l570 0 0 -161c0,-417 -309,-668 -817,-664 -279,2 -472,53 -821,215 -317,147 -394,152 -548,35 -94,-72 -283,-428 -296,-561 -7,-68 10,-88 168,-197 561,-388 1561,-557 2246,-380 461,119 804,380 989,752 168,340 175,418 176,2036l1 1421 -57 14c-351,87 -1774,144 -2279,91l0 0zm1159 -882l80 -16 0 -938 -440 0c-671,0 -901,56 -1033,253 -45,67 -58,122 -58,243 0,255 101,366 396,439 134,33 917,48 1057,20l0 0zm14216 881c-722,-93 -1243,-431 -1535,-995 -351,-679 -342,-1682 21,-2353 378,-699 1099,-1086 1922,-1032 837,55 1355,441 1595,1188 94,292 126,545 126,976l0 356 -2790 0 15 125c31,263 201,506 446,636 214,114 411,159 703,159 422,0 794,-115 1087,-336l139 -105 47 61c26,34 82,131 124,217 139,280 88,553 -136,735 -378,307 -1090,456 -1764,369zm1088 -2640c24,-24 -32,-302 -84,-420 -69,-155 -206,-292 -365,-362 -187,-83 -554,-83 -762,0 -266,106 -490,393 -523,670l-15 126 868 0c477,0 873,-6 881,-13l0 0zm-27710 2627c-413,-49 -801,-191 -924,-337 -86,-103 -111,-260 -71,-455 41,-201 168,-479 210,-461 18,8 124,53 237,101 376,161 810,238 1216,216 403,-22 574,-133 569,-369 -5,-216 -138,-294 -711,-416 -616,-131 -858,-233 -1109,-471 -221,-209 -336,-497 -336,-844 0,-364 118,-641 374,-881 460,-430 1271,-564 2228,-368 276,57 592,165 609,209 22,58 -63,413 -135,559 -35,72 -96,152 -134,178 -92,61 -286,56 -568,-16 -303,-77 -808,-98 -1002,-41 -185,54 -275,154 -275,306 0,217 113,287 645,396 840,173 1235,396 1425,802 133,284 160,808 49,1122 -394,808 -1413,901 -2298,770zm17897 -21c-428,-90 -687,-325 -830,-755 -44,-130 -47,-279 -55,-2068 -5,-1060 -2,-1965 7,-2010 37,-200 264,-337 771,-465 171,-43 318,-78 326,-78 8,0 14,247 14,549l0 549 1130 0 -11 326c-8,249 -22,349 -58,424 -72,150 -144,169 -638,169l-422 0 0 1054c0,1043 1,1056 57,1168 42,83 89,130 172,173 108,56 137,59 494,50l379 -10 -9 295c-7,241 -19,311 -61,384 -60,103 -181,192 -315,231 -151,45 -758,53 -950,13zm-9774 -707c-3,-201 -3,-474 -3,-849 0,-804 -10,-1312 -27,-1393 -63,-295 -271,-443 -641,-458 -626,23 -798,410 -813,732l12 2647c-374,10 -748,5 -1123,0l-13 -1481c-13,-1455 -14,-1483 -68,-1583 -118,-219 -268,-299 -586,-314 -312,-15 -486,35 -632,181 -184,185 -180,142 -189,1754l-8 1443c-366,5 -731,9 -1097,14l0 -1488c1,-1671 3,-1699 177,-2053 180,-364 519,-619 984,-740 263,-68 920,-63 1191,11 282,76 497,194 658,360l139 143 143 -140c172,-170 389,-289 657,-362 289,-79 928,-79 1217,0 603,164 981,548 1102,1116 31,145 38,451 38,1650 0,1364 -3,1473 -43,1489 -622,126 -1091,75 -1077,-678zm24159 693c-152,-32 -236,-78 -298,-162 -52,-70 -53,-103 -66,-1443 -4,-423 -8,-705 -12,-1128 23,-425 -194,-675 -732,-664 -528,-11 -736,280 -719,530l-5 2853 -1124 0 0 -1455c0,-1308 5,-1475 46,-1650 131,-557 465,-921 1004,-1095 401,-129 817,-158 1269,-90 756,114 1190,469 1362,1113 38,144 45,348 53,1661l9 1497 -59 17c-100,29 -615,40 -729,15l0 0zm-17980 -13c12,-396 1,-1077 4,-1511 9,-1399 12,-1459 66,-1656 157,-571 474,-894 1018,-1037 231,-60 717,-90 1014,-62l200 19 -11 310c-8,239 -23,337 -63,425 -79,176 -102,187 -451,204 -328,16 -372,29 -482,145 -159,167 -158,161 -168,1738l-9 1424c-381,4 -760,1 -1118,0l0 0zm5519 -2343c8,-2608 -2,-2449 178,-2826 110,-231 380,-500 628,-625 327,-165 556,-206 1129,-206 274,0 531,9 572,20l74 20 -16 260c-19,313 -70,497 -159,581 -63,59 -87,63 -466,76 -343,12 -415,22 -505,69 -200,105 -316,324 -316,598l0 123 1144 0 17 172c17,173 -18,510 -60,590 -13,24 -48,66 -79,94 -51,46 -100,52 -539,59l-483 8 0 3341 -1125 0 8 -2356zm2553 843l8 -1399c9,-233 102,-467 210,-655 190,-328 489,-538 913,-647 239,-61 718,-91 1041,-64l223 19 0 196c0,239 -40,496 -92,597 -58,113 -172,148 -479,148 -125,0 -195,2 -251,12 -157,36 -299,175 -378,321 -56,103 -65,191 -65,301l-6 1246 -7 1438 -1124 0 8 -1513z"/>
  <polygon class="fil1" points="27103,3211 28650,3211 28650,4724 27103,4724 "/>
 </g>
</svg>
