<?xml version="1.0" encoding="UTF-8"?>
<!DOCTYPE svg PUBLIC "-//W3C//DTD SVG 1.1//EN" "http://www.w3.org/Graphics/SVG/1.1/DTD/svg11.dtd">
<!-- Creator: CorelDRAW X5 -->
<svg xmlns="http://www.w3.org/2000/svg" xml:space="preserve" width="101.54mm" height="130mm" style="shape-rendering:geometricPrecision; text-rendering:geometricPrecision; image-rendering:optimizeQuality; fill-rule:evenodd; clip-rule:evenodd"
viewBox="0 0 10154 13000"
 xmlns:xlink="http://www.w3.org/1999/xlink">
 <defs>
  <style type="text/css">
   <![CDATA[
    .fil0 {fill:#332C2B;fill-rule:nonzero}
   ]]>
  </style>
 </defs>
 <g id="Layer_x0020_1">
  <metadata id="CorelCorpID_0Corel-Layer"/>
  <path class="fil0" d="M6531 8873c-424,320 -988,503 -1546,503 -1390,0 -2118,-776 -2118,-1542 0,-455 340,-930 907,-930 335,0 857,165 792,817 -10,-66 -96,-298 -349,-298 -141,0 -260,116 -260,254 0,56 -13,72 -24,72 -94,0 -211,-138 -187,-369 -364,406 -105,694 22,812 28,26 72,66 72,81 0,40 -104,105 -366,81 457,544 988,397 1270,318 70,-20 154,-56 176,-23 37,50 -62,284 -197,406 769,-100 1022,-542 1149,-773 43,-78 80,-145 111,-145 80,0 151,327 98,579 510,-475 363,-985 289,-1213 -18,-56 -34,-104 -34,-132 0,-42 13,-54 43,-61 128,0 276,46 454,130 -472,-1104 -2103,-953 -2500,-1197 300,-16 680,-236 1016,-452 118,-77 210,-153 284,-214 77,-64 144,-120 180,-120 99,0 113,291 62,470 248,-160 365,-401 365,-626 0,-224 -124,-364 -206,-457 -25,-29 -60,-68 -61,-81 0,-13 10,-28 28,-41 85,-63 252,-86 426,-47 -383,-492 -858,-352 -1119,-267 -79,26 -196,62 -196,30 0,-93 123,-283 341,-415 -445,-30 -1057,304 -1497,540 -360,192 -699,373 -894,373 -120,0 -162,-43 -162,-88 0,-334 1182,-1225 2430,-1225 473,0 860,117 1118,338 224,192 348,462 348,762 0,460 -218,777 -348,967 -67,97 -104,151 -104,208 0,89 83,150 221,252 270,199 723,533 723,1217 0,774 -410,1246 -755,1506zm-1195 -5421l-23 0c-568,3 -1210,192 -1763,518 -501,296 -824,641 -824,878 0,57 22,109 64,150 157,156 593,152 1099,152 751,0 1061,41 1061,161 0,145 -886,502 -886,813 0,360 743,427 1080,487 317,57 350,229 350,346 0,220 -81,416 -228,550 -140,128 -312,208 -565,197 81,-579 -330,-969 -927,-969 -674,0 -1077,558 -1077,1098 0,852 786,1714 2289,1714 595,0 1196,-196 1649,-538 375,-283 823,-798 823,-1643 0,-770 -515,-1151 -792,-1355 -56,-41 -123,-91 -146,-118 12,-24 43,-69 69,-107 132,-193 378,-551 378,-1064 0,-585 -427,-1268 -1629,-1271zm-681 4416c297,16 541,-64 725,-233 181,-165 284,-412 284,-677 0,-150 -53,-258 -171,-351 440,90 912,315 1155,667 -126,-44 -205,-56 -287,-56 -63,0 -119,69 -119,153 0,43 17,95 38,160 66,204 173,532 -103,945 5,-171 -38,-308 -93,-376 -38,-47 -77,-57 -102,-57 -85,0 -130,81 -192,192 -112,202 -294,531 -868,691 82,-125 110,-260 80,-332 -15,-36 -45,-57 -80,-57 -1,0 -1,0 -2,0 -55,2 -124,22 -203,44 -259,73 -640,179 -1035,-138 80,-6 150,-31 197,-71 34,-29 52,-65 52,-101 0,-54 -45,-96 -102,-149 -113,-104 -261,-242 -142,-530 16,63 45,119 85,164 48,53 105,83 158,83 116,0 116,-99 116,-165 0,-86 78,-162 168,-162 254,0 349,374 265,578 84,-65 150,-161 174,-224zm-418 -1743l-2 0c3,-95 262,-260 434,-370 253,-161 452,-289 452,-443 0,-63 -24,-120 -70,-165 -171,-171 -653,-169 -1163,-167 -186,1 -383,7 -570,-9 191,-64 424,-188 680,-325 376,-201 795,-425 1189,-515 -104,104 -173,230 -173,333 0,42 26,87 97,87 63,0 138,-24 224,-53 228,-75 532,-174 875,78 -117,-1 -213,32 -268,74 -53,41 -64,85 -64,114 0,47 36,87 85,143 77,87 183,206 183,395 0,157 -66,320 -161,436 14,-102 -4,-253 -64,-322 -28,-33 -66,-50 -109,-50 -69,0 -137,56 -239,141 -72,60 -161,134 -275,207 -337,217 -719,438 -1000,438 -17,0 -61,-5 -61,-27z"/>
 </g>
</svg>
