<svg id="Layer_1" data-name="Layer 1" xmlns="http://www.w3.org/2000/svg" viewBox="0 0 24 24"><defs><style>.cls-1{fill:#00aa5b;stroke:#00aa5b;stroke-miterlimit:10;stroke-width:0.75px;}.cls-2,.cls-3{fill:none;}.cls-3{stroke:#fff;stroke-linecap:round;stroke-linejoin:round;stroke-width:1.5px;}.cls-4{fill:#145638;}</style></defs><path class="cls-1" d="M16.34,3.83a4.37,4.37,0,0,0-2.74,1A6.18,6.18,0,0,0,12,6.7a6.18,6.18,0,0,0-1.6-1.92,4.37,4.37,0,0,0-2.74-1A5,5,0,0,0,2.75,9.16c0,3.29,2.64,5.53,6.63,8.93L11.62,20a.56.56,0,0,0,.76,0l2.24-1.93c4-3.4,6.63-5.64,6.63-8.93A5,5,0,0,0,16.34,3.83Z"/><rect class="cls-2" width="24" height="24"/><path class="cls-3" d="M18.48,10.46a2.76,2.76,0,0,0-.07-3.22,3.06,3.06,0,0,0-.36-.36"/><path class="cls-3" d="M16.4,13.12l.2-.18"/><rect class="cls-4" x="19" y="17" width="1.5" height="4" rx="0.75"/><rect class="cls-4" x="19" y="17" width="1.5" height="4" rx="0.75" transform="translate(38.75 -0.75) rotate(90)"/><rect class="cls-4" x="3" y="15" width="1.5" height="4" rx="0.75"/><rect class="cls-4" x="3" y="15" width="1.5" height="4" rx="0.75" transform="translate(20.75 13.25) rotate(90)"/></svg>