<?xml version="1.0" encoding="UTF-8"?>
<!DOCTYPE svg PUBLIC "-//W3C//DTD SVG 1.1//EN" "http://www.w3.org/Graphics/SVG/1.1/DTD/svg11.dtd">
<!-- Creator: CorelDRAW X5 -->
<svg xmlns="http://www.w3.org/2000/svg" xml:space="preserve" width="162.695mm" height="130mm" style="shape-rendering:geometricPrecision; text-rendering:geometricPrecision; image-rendering:optimizeQuality; fill-rule:evenodd; clip-rule:evenodd"
viewBox="0 0 16269 13000"
 xmlns:xlink="http://www.w3.org/1999/xlink">
 <defs>
  <style type="text/css">
   <![CDATA[
    .fil1 {fill:#002BBA;fill-rule:nonzero}
    .fil0 {fill:#00C89E;fill-rule:nonzero}
   ]]>
  </style>
 </defs>
 <g id="__x0023_Layer_x0020_1">
  <metadata id="CorelCorpID_0Corel-Layer"/>
  <path class="fil0" d="M8901 3517c68,-44 152,-81 234,-57 73,28 98,113 96,185 0,893 0,1785 0,2678 844,0 1689,0 2533,0 67,0 148,22 175,91 28,82 -14,165 -52,237 -221,407 -452,809 -687,1208 -70,93 -161,179 -277,207 -96,23 -196,22 -294,24 -280,1 -560,0 -840,1 -122,-1 -259,5 -355,90 -80,76 -70,200 -39,297 68,207 198,385 294,578 -99,-66 -195,-138 -286,-214 -285,-252 -545,-531 -765,-841 -660,-915 -1002,-2035 -1064,-3155 -11,-246 90,-515 309,-644 339,-228 678,-455 1017,-683z"/>
  <path class="fil1" d="M4330 5307c35,-73 123,-96 198,-95 513,0 1025,0 1538,0 89,2 182,5 262,49 81,44 143,115 205,182 187,213 374,426 561,639 11,11 30,36 45,15 103,-112 200,-228 303,-341 85,545 296,1065 581,1535 363,594 839,1115 1382,1550 91,76 187,148 286,214 62,67 121,138 180,207 45,52 75,127 47,194 -31,66 -109,93 -177,92 -518,0 -1036,0 -1553,0 -87,0 -178,-2 -257,-42 -83,-43 -147,-113 -210,-181 -184,-210 -368,-419 -552,-629 -14,-17 -31,-30 -49,-42 -195,219 -386,441 -581,660 -64,71 -129,144 -214,190 -79,41 -170,45 -257,45 -518,0 -1037,0 -1555,0 -74,2 -163,-30 -186,-107 -23,-79 25,-153 76,-208 538,-618 1076,-1236 1616,-1851 -541,-623 -1088,-1242 -1628,-1866 -51,-55 -89,-134 -60,-208z"/>
 </g>
</svg>
